# xmcd
#
# Track frame offsets: 
#        150
#        17872
#        33699
#        51736
#        70089
#        87432
#        109985
#        127434
#        146064
#        167543
#        186292
#        206418
#        222859
#
# Disc length: 3219 seconds
#
# Revision: 0
# Processed by: cddbd v1.5.2PL0 Copyright (c) Steve Scherf et al.
# Submitted via: ExactAudioCopyFreeDBPlugin 1.0
#
DISCID=d10c910d
DTITLE=38A - STE20试音极品TESTCD
DYEAR=2016
DGENRE=STE
TTITLE0=一起去西藏
TTITLE1=玛尼情歌
TTITLE2=雪域情歌
TTITLE3=亲爱的你在哪里
TTITLE4=天籁之爱
TTITLE5=西藏情歌
TTITLE6=幸福去拉萨
TTITLE7=拉萨酒吧
TTITLE8=我的九寨
TTITLE9=马头琴恋曲
TTITLE10=骑车到拉萨
TTITLE11=今生相爱
TTITLE12=火红的萨日朗
EXTD=
EXTT0=
EXTT1=
EXTT2=
EXTT3=
EXTT4=
EXTT5=
EXTT6=
EXTT7=
EXTT8=
EXTT9=
EXTT10=
EXTT11=
EXTT12=
PLAYORDER=
